<svg width="35" height="35" viewBox="0 0 35 35" fill="none" xmlns="http://www.w3.org/2000/svg">
<path d="M32.2656 30.8984C32.2656 31.6535 31.6535 32.2656 30.8984 32.2656H29.5312V33.6328C29.5312 34.3879 28.9192 35 28.1641 35C27.409 35 26.7969 34.3879 26.7969 33.6328V32.2656H25.4297C24.6746 32.2656 24.0625 31.6535 24.0625 30.8984C24.0625 30.1433 24.6746 29.5312 25.4297 29.5312H26.7969V28.1641C26.7969 27.409 27.409 26.7969 28.1641 26.7969C28.9192 26.7969 29.5312 27.409 29.5312 28.1641V29.5312H30.8984C31.6535 29.5312 32.2656 30.1433 32.2656 30.8984ZM32.2656 9.57031V22.6953C32.2656 23.4504 31.6535 24.0625 30.8984 24.0625C30.1433 24.0625 29.5312 23.4504 29.5312 22.6953V10.9375H26.7969V15.0391C26.7969 15.7942 26.1848 16.4062 25.4297 16.4062C24.6746 16.4062 24.0625 15.7942 24.0625 15.0391V10.9375H10.9375V15.0391C10.9375 15.7942 10.3254 16.4062 9.57031 16.4062C8.81521 16.4062 8.20312 15.7942 8.20312 15.0391V10.9375H5.46875V32.2656H19.9609C20.716 32.2656 21.3281 32.8777 21.3281 33.6328C21.3281 34.3879 20.716 35 19.9609 35H4.10156C3.34646 35 2.73438 34.3879 2.73438 33.6328V9.57031C2.73438 8.81521 3.34646 8.20312 4.10156 8.20312H8.26779C8.81091 3.59044 12.7438 0 17.5 0C22.2562 0 26.1891 3.59044 26.7322 8.20312H30.8984C31.6535 8.20312 32.2656 8.81521 32.2656 9.57031ZM23.9708 8.20312C23.4486 5.10337 20.7459 2.73438 17.5 2.73438C14.2541 2.73438 11.5514 5.10337 11.0292 8.20312H23.9708Z" fill="url(#paint0_linear)"/>
<defs>
<linearGradient id="paint0_linear" x1="17.5" y1="0" x2="17.5" y2="35" gradientUnits="userSpaceOnUse">
<stop stop-color="#5A5A5A"/>
<stop offset="1" stop-color="#1D1D1D"/>
</linearGradient>
</defs>
</svg>
