<svg width="280" height="200" viewBox="0 0 280 200" fill="none" xmlns="http://www.w3.org/2000/svg">
<g clip-path="url(#clip0)">
<path d="M0 129.121V7C44.4906 8.85714 47 35.3494 47 65.8795V188C2.50942 186.143 -0.00124037 156.38 0 129.121Z" fill="url(#paint0_linear)" stroke="#D697FC" stroke-opacity="0.3"/>
<path d="M121 188H52V129C99.0952 129 121 154.13 121 188Z" fill="url(#paint1_linear)" stroke="#D697FC" stroke-opacity="0.3"/>
<path d="M134.93 188H130.794V169.388H126.94L128.82 165.44H134.93V188ZM130.606 160.74C130.199 160.207 129.995 159.628 129.995 159.001C129.995 158.374 130.199 157.81 130.606 157.309C131.013 156.776 131.64 156.51 132.486 156.51C133.332 156.51 133.959 156.776 134.366 157.309C134.773 157.81 134.977 158.374 134.977 159.001C134.977 159.628 134.773 160.207 134.366 160.74C133.959 161.241 133.332 161.492 132.486 161.492C131.64 161.492 131.013 161.241 130.606 160.74ZM138.863 169.388L147.276 160.975V165.44H153.621V169.388H147.276V179.07C147.276 180.167 147.448 181.075 147.793 181.796C148.169 182.517 148.701 183.034 149.391 183.347C150.08 183.629 150.722 183.817 151.318 183.911C151.944 184.005 152.712 184.052 153.621 184.052V188C150.017 188 147.354 187.311 145.631 185.932C143.907 184.553 143.046 182.266 143.046 179.07V169.388H138.863ZM169.148 164.97C174.475 165.189 177.138 167.398 177.138 171.597C177.138 176.83 173.707 179.446 166.845 179.446H164.918V175.827H167.174C169.274 175.827 170.731 175.514 171.545 174.887C172.36 174.229 172.767 173.148 172.767 171.644C172.767 170.673 172.407 169.952 171.686 169.482C170.966 168.981 170.041 168.73 168.913 168.73C166.689 168.73 164.934 169.513 163.649 171.08C162.396 172.647 161.769 174.527 161.769 176.72C161.769 179.039 162.443 180.919 163.79 182.36C165.169 183.801 166.955 184.522 169.148 184.522C171.122 184.522 172.736 184.036 173.989 183.065L176.809 185.838C174.647 187.593 172.094 188.47 169.148 188.47C165.576 188.47 162.725 187.42 160.594 185.321C158.464 183.222 157.398 180.511 157.398 177.19C157.398 173.493 158.448 170.5 160.547 168.213C162.647 165.926 165.514 164.845 169.148 164.97ZM181.128 188V175.169C181.128 171.566 181.801 169.075 183.149 167.696C183.807 167.007 184.606 166.49 185.546 166.145C186.486 165.8 187.3 165.597 187.99 165.534C188.71 165.471 189.682 165.44 190.904 165.44H195.04V169.388H190.058C189.431 169.388 188.945 169.404 188.601 169.435C188.256 169.466 187.849 169.576 187.379 169.764C186.909 169.952 186.501 170.25 186.157 170.657C185.561 171.409 185.264 172.913 185.264 175.169V188H181.128ZM210.63 174.746V178.976C209.439 178.067 207.982 177.613 206.259 177.613C204.786 177.613 203.642 177.911 202.828 178.506C202.013 179.07 201.606 179.885 201.606 180.95C201.606 183.018 203.141 184.052 206.212 184.052H212.416V175.075C212.416 171.284 210.567 169.388 206.87 169.388H199.35V165.44H207.105C210.144 165.44 212.478 166.192 214.108 167.696C215.737 169.2 216.552 171.362 216.552 174.182V188H206.071C203.407 188 201.292 187.405 199.726 186.214C198.159 185.023 197.376 183.284 197.376 180.997C197.376 178.71 198.206 176.971 199.867 175.78C201.527 174.589 203.611 173.994 206.118 173.994C207.528 173.994 209.032 174.245 210.63 174.746ZM219.368 169.388L227.781 160.975V165.44H234.126V169.388H227.781V179.07C227.781 180.167 227.954 181.075 228.298 181.796C228.674 182.517 229.207 183.034 229.896 183.347C230.586 183.629 231.228 183.817 231.823 183.911C232.45 184.005 233.218 184.052 234.126 184.052V188C230.523 188 227.86 187.311 226.136 185.932C224.413 184.553 223.551 182.266 223.551 179.07V169.388H219.368ZM241.194 168.401C243.387 166.114 246.129 164.97 249.419 164.97C251.017 164.97 252.505 165.283 253.884 165.91C255.294 166.505 256.516 167.336 257.55 168.401C258.615 169.466 259.446 170.72 260.041 172.161C260.636 173.571 260.934 175.091 260.934 176.72C260.934 178.349 260.636 179.885 260.041 181.326C259.477 182.736 258.678 183.974 257.644 185.039C256.61 186.104 255.388 186.95 253.978 187.577C252.568 188.172 251.048 188.47 249.419 188.47C247.758 188.47 246.223 188.172 244.813 187.577C243.434 186.95 242.228 186.104 241.194 185.039C240.16 183.974 239.345 182.736 238.75 181.326C238.186 179.885 237.904 178.349 237.904 176.72C237.904 173.399 239.001 170.626 241.194 168.401ZM249.419 168.918C247.226 168.918 245.455 169.639 244.108 171.08C242.792 172.521 242.134 174.401 242.134 176.72C242.134 179.039 242.792 180.919 244.108 182.36C245.455 183.801 247.226 184.522 249.419 184.522C251.644 184.522 253.414 183.801 254.73 182.36C256.046 180.887 256.704 179.007 256.704 176.72C256.704 174.433 256.046 172.568 254.73 171.127C253.414 169.654 251.644 168.918 249.419 168.918ZM265.168 188V175.169C265.168 171.566 265.841 169.075 267.189 167.696C267.847 167.007 268.646 166.49 269.586 166.145C270.526 165.8 271.34 165.597 272.03 165.534C272.75 165.471 273.722 165.44 274.944 165.44H279.08V169.388H274.098C273.471 169.388 272.985 169.404 272.641 169.435C272.296 169.466 271.889 169.576 271.419 169.764C270.949 169.952 270.541 170.25 270.197 170.657C269.601 171.409 269.304 172.913 269.304 175.169V188H265.168Z" fill="url(#paint2_linear)"/>
</g>
<defs>
<linearGradient id="paint0_linear" x1="58.4768" y1="7.00004" x2="58.4768" y2="188" gradientUnits="userSpaceOnUse">
<stop stop-color="#BD00FF" stop-opacity="0"/>
<stop offset="0.668267" stop-color="#9E15CE" stop-opacity="0.662421"/>
<stop offset="1" stop-color="#4E0069"/>
</linearGradient>
<linearGradient id="paint1_linear" x1="86.5" y1="129" x2="86.5" y2="188" gradientUnits="userSpaceOnUse">
<stop stop-color="#BD00FF" stop-opacity="0"/>
<stop offset="0.0001" stop-color="#9E15CE" stop-opacity="0.453125"/>
<stop offset="1" stop-color="#4E0069"/>
</linearGradient>
<linearGradient id="paint2_linear" x1="203" y1="144" x2="203" y2="200" gradientUnits="userSpaceOnUse">
<stop offset="0.442708" stop-color="#B10DFF"/>
<stop offset="1" stop-color="#B700C7" stop-opacity="0.05"/>
</linearGradient>
<clipPath id="clip0">
<rect width="280" height="200" fill="white"/>
</clipPath>
</defs>
</svg>
