<svg width="280" height="200" viewBox="0 0 280 200" fill="none" xmlns="http://www.w3.org/2000/svg">
<g clip-path="url(#clip0)">
<g opacity="0.9">
<path d="M159.397 165.134H122.459C115.5 165.134 115.497 171.839 122.459 171.839H159.397C165.821 171.839 165.821 165.134 159.397 165.134Z" fill="#5E5E5E" stroke="#5E5E5E"/>
<path d="M150.793 193.295H129.318C130.825 195.53 135.083 200 140.056 200C145.029 200 149.286 195.53 150.793 193.295Z" fill="#5E5E5E" stroke="#5E5E5E"/>
<path d="M199.782 74.63L198.145 88.6973L180.321 39.0936L193.743 54.515L199.782 74.63Z" fill="url(#paint0_linear)"/>
<path d="M189.716 106.801L176.965 131.609L146.767 118.199L189.716 106.801Z" fill="url(#paint1_linear)"/>
<path d="M140.056 162.465H164.886M180.321 39.0936L193.743 54.515L199.782 74.63L198.145 88.6973L180.321 39.0936ZM180.321 39.0936L160.859 28.3656M176.965 131.609L189.716 106.801L146.767 118.199L176.965 131.609Z" stroke="black"/>
<path d="M82.3422 90.0383L89.7241 106.143L96.7706 118.883L103.817 131.622L113.212 104.119L117.91 90.0383L128.871 57.1839L89.0531 71.9349L117.91 90.0383L113.212 104.119L82.3422 90.0383Z" fill="url(#paint2_linear)"/>
<path d="M140.727 162.465H115.897L109.857 147.031L103.817 131.622M103.817 131.622L96.7706 118.883L89.7241 106.143L82.3422 90.0383M103.817 131.622L113.212 104.119M82.3422 90.0383L81 74.63L87.0398 54.515L100.462 39.0936L119.252 29.023M82.3422 90.0383L113.212 104.119M139.385 25.6705L128.871 57.1839M113.212 104.119L117.91 90.0383M128.871 57.1839L89.0531 71.9349L117.91 90.0383M128.871 57.1839L117.91 90.0383" stroke="black"/>
<path d="M139.385 25.6705L140.056 25.6836H140.727" stroke="black" stroke-width="0.86"/>
<path d="M153.979 183.908H127.476C120.984 183.908 120.985 190.613 127.476 190.613H153.979C160.469 190.613 160.469 183.908 153.979 183.908Z" fill="#5E5E5E" stroke="#5E5E5E"/>
<path d="M156.754 174.521H124.901C118.001 174.521 118.531 181.226 124.901 181.226H156.754C163.123 181.226 163.123 174.521 156.754 174.521Z" fill="#5E5E5E" stroke="#5E5E5E"/>
<path d="M118.037 90.0383L113.345 103.756L146.767 118.199L104.488 130.939L113.345 103.756L83.0133 90.0383H118.037L129.213 57.3664L88.8206 71.8187L100.462 39.7509L129.213 57.3664L142.069 52.7668L160.859 29.023L169.708 42.8775L142.069 52.7668L118.037 90.0383Z" fill="url(#paint3_linear)"/>
<path d="M174.952 90.0383L197.769 89.3678L189.716 106.801L174.952 90.0383Z" fill="url(#paint4_linear)"/>
<path d="M129.213 57.3664L100.462 39.7509L88.8206 71.8187L129.213 57.3664ZM129.213 57.3664L142.069 52.7668M129.213 57.3664L118.037 90.0383M118.037 90.0383L113.345 103.756M118.037 90.0383H83.0133L113.345 103.756M118.037 90.0383L142.069 52.7668M113.345 103.756L104.488 130.939L146.767 118.199L113.345 103.756ZM142.069 52.7668L169.708 42.8775L160.859 29.023L142.069 52.7668ZM197.769 89.3678L174.952 90.0383L189.716 106.801L197.769 89.3678Z" stroke="black"/>
<path d="M128.649 57.1839L119.577 29.023L139.386 25.6705L128.649 57.1839Z" fill="url(#paint5_linear)"/>
<path d="M174.954 90.4415L189.047 106.801L146.768 118.199L174.954 90.4415L169.585 43.1035L197.1 89.3678L174.954 90.4415Z" fill="url(#paint6_linear)"/>
<path d="M174.954 90.4415L189.047 106.801L146.768 118.199L174.954 90.4415ZM174.954 90.4415L197.1 89.3678L169.585 43.1035L174.954 90.4415ZM119.577 29.023L128.649 57.1839L139.386 25.6705L119.577 29.023Z" stroke="black"/>
<path d="M176.965 131.609L115.897 162.452H164.886L176.965 131.609Z" fill="url(#paint7_linear)" stroke="black"/>
<path d="M140.727 149.713L104.488 130.939L175.623 131.609L140.727 149.713Z" fill="url(#paint8_linear)" stroke="black"/>
<path d="M101.133 39.7509L128.647 57.1839" stroke="black"/>
<path d="M89.053 71.9349L87.0398 54.5019L81.6711 73.9464L89.053 71.9349Z" fill="url(#paint9_linear)" stroke="black"/>
<path d="M146.767 118.199L173.61 90.7088L117.91 90.0383L146.767 118.199Z" fill="url(#paint10_linear)" stroke="black"/>
<path d="M142.069 52.4904L160.188 28.3525L140.727 25.6705L142.069 52.4904Z" fill="url(#paint11_linear)" stroke="black"/>
<path d="M180.321 39.751L197.769 89.3678L169.583 43.1034L162.202 29.6935L180.321 39.751Z" fill="url(#paint12_linear)"/>
<path d="M169.583 43.1034L180.321 39.751M169.583 43.1034L197.769 89.3678L180.321 39.751M169.583 43.1034L162.202 29.6935L180.321 39.751" stroke="black"/>
<path d="M83.0133 90.0383L89.0509 71.9349L117.908 90.0383H83.0133Z" fill="url(#paint13_linear)" stroke="black"/>
<path d="M117.91 90.0383L142.74 52.4904L174.952 90.0383H117.91L146.095 117.529L113.212 103.448L117.91 90.0383H82.6064L81.6711 74.6169L89.053 71.9349L82.6064 90.0383H117.91Z" fill="url(#paint14_linear)"/>
<path d="M117.91 90.0383L142.74 52.4904L174.952 90.0383H117.91ZM117.91 90.0383H82.6064M117.91 90.0383L113.212 103.448L146.095 117.529L117.91 90.0383ZM82.6064 90.0383L89.053 71.9349L81.6711 74.6169L82.6064 90.0383Z" stroke="black"/>
<path d="M140.727 149.713L103.817 130.939L115.897 161.782L140.727 149.713Z" fill="url(#paint15_linear)" stroke="black"/>
<path d="M176.294 131.609L146.767 118.199L105.159 130.939L176.294 131.609Z" fill="url(#paint16_linear)" stroke="black"/>
<path d="M89.0531 70.5939L87.0398 54.5019L100.462 39.751L118.581 29.6935L128.647 57.8544L140.056 25L142.069 52.4904L168.912 43.1034L174.952 89.3678L142.069 52.4904L128.647 57.8544L100.462 39.751L89.0531 70.5939Z" fill="url(#paint17_linear)"/>
<path d="M100.462 39.751L87.0398 54.5019L89.0531 70.5939L100.462 39.751ZM100.462 39.751L118.581 29.6935L128.647 57.8544M100.462 39.751L128.647 57.8544M128.647 57.8544L140.056 25L142.069 52.4904M128.647 57.8544L142.069 52.4904M142.069 52.4904L168.912 43.1034L174.952 89.3678L142.069 52.4904Z" stroke="black"/>
</g>
</g>
<defs>
<linearGradient id="paint0_linear" x1="169.919" y1="28.3656" x2="169.919" y2="162.465" gradientUnits="userSpaceOnUse">
<stop stop-color="#11FFD4"/>
<stop offset="0.989583" stop-color="#4333FF" stop-opacity="0.74"/>
</linearGradient>
<linearGradient id="paint1_linear" x1="169.919" y1="28.3656" x2="169.919" y2="162.465" gradientUnits="userSpaceOnUse">
<stop stop-color="#11FFD4"/>
<stop offset="0.989583" stop-color="#4333FF" stop-opacity="0.74"/>
</linearGradient>
<linearGradient id="paint2_linear" x1="110.863" y1="25.6705" x2="110.863" y2="162.465" gradientUnits="userSpaceOnUse">
<stop stop-color="#FFAD0E"/>
<stop offset="1" stop-color="#FF0000" stop-opacity="0.69"/>
</linearGradient>
<linearGradient id="paint3_linear" x1="140.727" y1="26.341" x2="140.727" y2="130.939" gradientUnits="userSpaceOnUse">
<stop stop-color="#FFB800"/>
<stop offset="1" stop-color="#8DFFF8" stop-opacity="0.7"/>
</linearGradient>
<linearGradient id="paint4_linear" x1="140.727" y1="26.341" x2="140.727" y2="130.939" gradientUnits="userSpaceOnUse">
<stop stop-color="#FFB800"/>
<stop offset="1" stop-color="#8DFFF8" stop-opacity="0.7"/>
</linearGradient>
<linearGradient id="paint5_linear" x1="155.155" y1="28.3525" x2="155.155" y2="118.199" gradientUnits="userSpaceOnUse">
<stop stop-color="#F82C2C"/>
<stop offset="1" stop-color="#7E00E0" stop-opacity="0.62"/>
</linearGradient>
<linearGradient id="paint6_linear" x1="155.155" y1="28.3525" x2="155.155" y2="118.199" gradientUnits="userSpaceOnUse">
<stop stop-color="#F82C2C"/>
<stop offset="1" stop-color="#7E00E0" stop-opacity="0.62"/>
</linearGradient>
<linearGradient id="paint7_linear" x1="146.431" y1="131.609" x2="146.431" y2="162.452" gradientUnits="userSpaceOnUse">
<stop stop-color="#FBFF4D"/>
<stop offset="1" stop-color="#FF0000" stop-opacity="0.79"/>
</linearGradient>
<linearGradient id="paint8_linear" x1="140.056" y1="130.939" x2="140.056" y2="149.713" gradientUnits="userSpaceOnUse">
<stop stop-color="#FA02FF"/>
<stop offset="0.96875" stop-color="#FF60B6" stop-opacity="0.75"/>
</linearGradient>
<linearGradient id="paint9_linear" x1="85.3621" y1="54.5019" x2="85.3621" y2="73.9464" gradientUnits="userSpaceOnUse">
<stop stop-color="#FBFF4D"/>
<stop offset="0.0001" stop-color="#FBFF4D"/>
<stop offset="1" stop-color="#FF0000" stop-opacity="0.79"/>
</linearGradient>
<linearGradient id="paint10_linear" x1="146.767" y1="90.0383" x2="146.767" y2="118.199" gradientUnits="userSpaceOnUse">
<stop stop-color="#FFEB34"/>
<stop offset="1" stop-color="#FF3434" stop-opacity="0.91"/>
</linearGradient>
<linearGradient id="paint11_linear" x1="150.458" y1="25.6705" x2="150.458" y2="52.4904" gradientUnits="userSpaceOnUse">
<stop stop-color="#C82DFF"/>
<stop offset="1" stop-color="#F3AAFF" stop-opacity="0.78"/>
<stop offset="1" stop-color="#F3AAFF" stop-opacity="0.78"/>
</linearGradient>
<linearGradient id="paint12_linear" x1="184.012" y1="39.751" x2="184.012" y2="90.0383" gradientUnits="userSpaceOnUse">
<stop stop-color="#FF4545"/>
<stop offset="1" stop-color="#FFE600" stop-opacity="0.75"/>
</linearGradient>
<linearGradient id="paint13_linear" x1="100.126" y1="71.9349" x2="100.126" y2="90.0383" gradientUnits="userSpaceOnUse">
<stop stop-color="#950098"/>
<stop offset="0.723958" stop-color="#FF5EDB" stop-opacity="0.81"/>
</linearGradient>
<linearGradient id="paint14_linear" x1="146.431" y1="52.4904" x2="146.431" y2="90.0383" gradientUnits="userSpaceOnUse">
<stop stop-color="#69E4FF"/>
<stop offset="1" stop-color="#097CE7" stop-opacity="0.84"/>
</linearGradient>
<linearGradient id="paint15_linear" x1="122.272" y1="130.939" x2="122.272" y2="161.782" gradientUnits="userSpaceOnUse">
<stop stop-color="#3EDCFF"/>
<stop offset="1" stop-color="#0C77B3" stop-opacity="0.75"/>
</linearGradient>
<linearGradient id="paint16_linear" x1="140.727" y1="118.87" x2="140.727" y2="131.609" gradientUnits="userSpaceOnUse">
<stop stop-color="#72FF4F"/>
<stop offset="0.0001" stop-color="#45FF26"/>
<stop offset="1" stop-color="#FFE609" stop-opacity="0.78"/>
</linearGradient>
<linearGradient id="paint17_linear" x1="130.996" y1="25" x2="130.996" y2="89.3678" gradientUnits="userSpaceOnUse">
<stop stop-color="#E233FF" stop-opacity="0.2"/>
<stop offset="1" stop-color="#FF0C0C"/>
</linearGradient>
<clipPath id="clip0">
<rect width="280" height="200" fill="white"/>
</clipPath>
</defs>
</svg>
