<svg width="35" height="35" viewBox="0 0 35 35" fill="none" xmlns="http://www.w3.org/2000/svg">
<g clip-path="url(#clip0)">
<path d="M22.3275 12.6797C21.8747 12.6797 21.5078 13.0466 21.5078 13.4994V28.9912C21.5078 29.4436 21.8747 29.8108 22.3275 29.8108C22.7802 29.8108 23.1472 29.4436 23.1472 28.9912V13.4994C23.1472 13.0466 22.7802 12.6797 22.3275 12.6797Z" fill="url(#paint0_linear)"/>
<path d="M12.6556 12.6797C12.2029 12.6797 11.8359 13.0466 11.8359 13.4994V28.9912C11.8359 29.4436 12.2029 29.8108 12.6556 29.8108C13.1084 29.8108 13.4753 29.4436 13.4753 28.9912V13.4994C13.4753 13.0466 13.1084 12.6797 12.6556 12.6797Z" fill="url(#paint1_linear)"/>
<path d="M28.5763 4.26239H24.3797V3.2378C24.3845 2.37619 24.0438 1.54883 23.4339 0.940166C22.8239 0.331818 21.9953 -0.00693634 21.1337 0.000107698H13.8552C12.9936 -0.00693634 12.165 0.331818 11.5551 0.940166C10.9451 1.54883 10.6044 2.37619 10.6092 3.2378V4.26239H6.41259C4.83984 4.26271 3.5114 5.42914 3.30777 6.98843C3.10445 8.54804 4.08933 10.0164 5.60925 10.4198V30.6148C5.60925 31.8084 6.04694 32.9294 6.81153 33.7337C7.57261 34.5402 8.63178 34.9981 9.74025 35H25.2487C26.3575 34.9981 27.4166 34.5402 28.1774 33.7337C28.942 32.9294 29.3797 31.8084 29.3797 30.6148V10.4198C30.8996 10.0164 31.8845 8.54804 31.6811 6.98843C31.4775 5.42914 30.1491 4.26271 28.5763 4.26239V4.26239ZM12.2486 3.2378C12.2431 2.811 12.4109 2.4002 12.7138 2.09891C13.0164 1.79762 13.4281 1.63208 13.8552 1.63945H21.1337C21.5608 1.63208 21.9725 1.79762 22.2751 2.09891C22.578 2.39988 22.7458 2.811 22.7403 3.2378V4.26239H12.2486V3.2378ZM25.2487 33.3607H9.74025C8.33881 33.3607 7.24858 32.1568 7.24858 30.6148V10.4919H27.7403V30.6148C27.7403 32.1568 26.6501 33.3607 25.2487 33.3607ZM28.5763 8.85254H6.41259C5.59772 8.85254 4.93718 8.192 4.93718 7.37713C4.93718 6.56227 5.59772 5.90173 6.41259 5.90173H28.5763C29.3912 5.90173 30.0517 6.56227 30.0517 7.37713C30.0517 8.192 29.3912 8.85254 28.5763 8.85254Z" fill="url(#paint2_linear)"/>
<path d="M17.4954 12.6797C17.0427 12.6797 16.6758 13.0466 16.6758 13.4994V28.9912C16.6758 29.4436 17.0427 29.8108 17.4954 29.8108C17.9482 29.8108 18.3151 29.4436 18.3151 28.9912V13.4994C18.3151 13.0466 17.9482 12.6797 17.4954 12.6797Z" fill="url(#paint3_linear)"/>
</g>
<defs>
<linearGradient id="paint0_linear" x1="22.3275" y1="-2.72948" x2="22.3275" y2="37.9555" gradientUnits="userSpaceOnUse">
<stop stop-color="#5A5A5A"/>
<stop offset="1" stop-color="#1D1D1D"/>
</linearGradient>
<linearGradient id="paint1_linear" x1="12.6556" y1="-2.72948" x2="12.6556" y2="37.9555" gradientUnits="userSpaceOnUse">
<stop stop-color="#5A5A5A"/>
<stop offset="1" stop-color="#1D1D1D"/>
</linearGradient>
<linearGradient id="paint2_linear" x1="17.4945" y1="-2.72847" x2="17.4945" y2="37.9564" gradientUnits="userSpaceOnUse">
<stop stop-color="#696969"/>
<stop offset="1"/>
</linearGradient>
<linearGradient id="paint3_linear" x1="17.4955" y1="-2.72948" x2="17.4955" y2="37.9555" gradientUnits="userSpaceOnUse">
<stop stop-color="#5A5A5A"/>
<stop offset="1" stop-color="#1D1D1D"/>
</linearGradient>
<clipPath id="clip0">
<rect width="35" height="35" fill="white"/>
</clipPath>
</defs>
</svg>
