<svg width="35" height="35" viewBox="0 0 35 35" fill="none" xmlns="http://www.w3.org/2000/svg">
<g clip-path="url(#clip0)">
<path d="M32.3036 21.9857C31.8222 21.9857 31.4319 22.3759 31.4319 22.8574V30.597C31.4302 32.0407 30.2606 33.2107 28.8169 33.212H4.35841C2.91468 33.2107 1.74507 32.0407 1.74336 30.597V7.88184C1.74507 6.43846 2.91468 5.2685 4.35841 5.2668H12.098C12.5795 5.2668 12.9697 4.87659 12.9697 4.39512C12.9697 3.91399 12.5795 3.52344 12.098 3.52344H4.35841C1.95243 3.52616 0.002724 5.47587 0 7.88184V30.5973C0.002724 33.0033 1.95243 34.953 4.35841 34.9557H28.8169C31.2229 34.953 33.1726 33.0033 33.1753 30.5973V22.8574C33.1753 22.3759 32.7851 21.9857 32.3036 21.9857V21.9857Z" fill="url(#paint0_linear)"/>
<path d="M32.829 1.28175C31.2971 -0.250165 28.8135 -0.250165 27.2816 1.28175L11.7303 16.8331C11.6237 16.9397 11.5467 17.0718 11.5065 17.2168L9.4615 24.5999C9.37739 24.9026 9.46286 25.2268 9.68486 25.4491C9.90721 25.6711 10.2314 25.7566 10.5341 25.6728L17.9171 23.6274C18.0622 23.5873 18.1943 23.5103 18.3009 23.4037L33.8519 7.85204C35.3814 6.31911 35.3814 3.83754 33.8519 2.30461L32.829 1.28175ZM13.6296 17.3997L26.3571 4.67177L30.4619 8.7765L17.734 21.5044L13.6296 17.3997ZM12.8096 19.045L16.089 22.3247L11.5528 23.5815L12.8096 19.045ZM32.6193 6.61943L31.6948 7.54389L27.5897 3.43882L28.5145 2.51436C29.3654 1.66345 30.7452 1.66345 31.5961 2.51436L32.6193 3.53722C33.4688 4.38915 33.4688 5.76784 32.6193 6.61943V6.61943Z" fill="url(#paint1_linear)"/>
</g>
<defs>
<linearGradient id="paint0_linear" x1="16.5877" y1="-0.0643627" x2="16.5877" y2="37.2436" gradientUnits="userSpaceOnUse">
<stop stop-color="#616161"/>
<stop offset="1" stop-color="#101010"/>
</linearGradient>
<linearGradient id="paint1_linear" x1="22.2143" y1="-0.063177" x2="22.2143" y2="37.2448" gradientUnits="userSpaceOnUse">
<stop stop-color="#4A4A4A"/>
<stop offset="1" stop-color="#141414"/>
</linearGradient>
<clipPath id="clip0">
<rect width="35" height="35" fill="white"/>
</clipPath>
</defs>
</svg>
