<svg width="50" height="50" viewBox="0 0 50 50" fill="none" xmlns="http://www.w3.org/2000/svg">
<path d="M9.42228 23.4826L28.4252 4.47978C29.2922 3.61278 30.6651 3.61278 31.4599 4.47978C32.3269 5.34677 32.3269 6.71967 31.4599 7.51448L13.9743 25.0001L31.4599 42.4855C32.3269 43.3525 32.3269 44.7254 31.4599 45.5202C31.0263 45.9538 30.4483 46.1705 29.9426 46.1705C29.4368 46.1705 28.8587 45.9538 28.4253 45.5202L9.42242 26.5173C8.55529 25.7225 8.55528 24.3496 9.42228 23.4826Z" fill="#3A2C51"/>
<path d="M46.3151 4.47978C47.1821 3.61278 48.5549 3.61278 49.3498 4.47978C50.2167 5.34677 50.2167 6.71967 49.3498 7.51448L31.8642 25.0001L49.3498 42.4855C50.2167 43.3525 50.2167 44.7254 49.3498 45.5202C48.9162 45.9538 48.3382 46.1705 47.8325 46.1705C47.2544 46.1705 46.7486 45.9538 46.3152 45.5202L27.3123 26.5173C26.8788 26.0838 26.662 25.578 26.662 25.0001C26.662 24.422 26.8788 23.844 27.3123 23.4828L46.3151 4.47978Z" fill="#00BBD3"/>
</svg>
