<svg width="50" height="50" viewBox="0 0 50 50" fill="none" xmlns="http://www.w3.org/2000/svg">
<path d="M40.5777 23.4826L21.5748 4.47978C20.7078 3.61278 19.3349 3.61278 18.5401 4.47978C17.6731 5.34677 17.6731 6.71967 18.5401 7.51448L36.0257 25.0001L18.5401 42.4855C17.6731 43.3525 17.6731 44.7254 18.5401 45.5202C18.9737 45.9538 19.5517 46.1705 20.0574 46.1705C20.5632 46.1705 21.1413 45.9538 21.5747 45.5202L40.5776 26.5173C41.4447 25.7225 41.4447 24.3496 40.5777 23.4826Z" fill="#3A2C51"/>
<path d="M3.68495 4.47978C2.81795 3.61278 1.44505 3.61278 0.650248 4.47978C-0.216749 5.34677 -0.216749 6.71967 0.650248 7.51448L18.1358 25.0001L0.650248 42.4855C-0.216749 43.3525 -0.216749 44.7254 0.650248 45.5202C1.08382 45.9538 1.66177 46.1705 2.16753 46.1705C2.74562 46.1705 3.25138 45.9538 3.68481 45.5202L22.6877 26.5173C23.1212 26.0838 23.338 25.578 23.338 25.0001C23.338 24.422 23.1212 23.844 22.6877 23.4828L3.68495 4.47978Z" fill="#00BBD3"/>
</svg>
